<?xml version="1.0" encoding="UTF-8" standalone="no"?>
<svg
   version="1.2"
   viewBox="0 0 486 131"
   width="486"
   height="131"
   id="svg1"
   sodipodi:docname="icc-logo.svg"
   inkscape:version="1.3.1 (91b66b0783, 2023-11-16)"
   xmlns:inkscape="http://www.inkscape.org/namespaces/inkscape"
   xmlns:sodipodi="http://sodipodi.sourceforge.net/DTD/sodipodi-0.dtd"
   xmlns="http://www.w3.org/2000/svg"
   xmlns:svg="http://www.w3.org/2000/svg"
   xmlns:rdf="http://www.w3.org/1999/02/22-rdf-syntax-ns#"
   xmlns:cc="http://creativecommons.org/ns#"
   xmlns:dc="http://purl.org/dc/elements/1.1/">
  <sodipodi:namedview
     id="namedview1"
     pagecolor="#ffffff"
     bordercolor="#000000"
     borderopacity="0.25"
     inkscape:showpageshadow="2"
     inkscape:pageopacity="0.0"
     inkscape:pagecheckerboard="0"
     inkscape:deskcolor="#d1d1d1"
     inkscape:zoom="2.3312757"
     inkscape:cx="243"
     inkscape:cy="65.414828"
     inkscape:window-width="1920"
     inkscape:window-height="991"
     inkscape:window-x="-9"
     inkscape:window-y="-9"
     inkscape:window-maximized="1"
     inkscape:current-layer="svg1" />
  <defs
     id="defs1" />
  <title
     id="title1">Neues Projekt</title>
  <style
     id="style1">
		.s0 { fill: #000000 } 
	</style>
  <path
     id="ICC"
     class="s0"
     aria-label="ICC"
     d="M 0,128.5 H 32.7 L 55.8,2.5 H 23.1 Z m 121,2.5 c 21.3,0 38.4,-8.4 49.6,-23.7 L 149.8,86.7 c -7.2,9.6 -16.1,14.8 -27.2,14.8 -19,0 -32.2,-14.4 -32.2,-36 0,-21.6 13.2,-36 32.2,-36 11.1,0 20,5.2 27.2,14.8 L 170.6,23.7 C 159.4,8.4 142.3,0 121,0 84.3,0 57.4,27.2 57.4,65.5 57.4,103.8 84.3,131 121,131 Z m 117.8,0 c 21.3,0 38.4,-8.4 49.6,-23.7 L 267.6,86.7 c -7.2,9.6 -16.1,14.8 -27.2,14.8 -19,0 -32.2,-14.4 -32.2,-36 0,-21.6 13.2,-36 32.2,-36 11.1,0 20,5.2 27.2,14.8 L 288.4,23.7 C 277.2,8.4 260.1,0 238.8,0 c -36.7,0 -63.6,27.2 -63.6,65.5 0,38.3 26.9,65.5 63.6,65.5 z"
     style="fill:#ffffff;fill-opacity:1" />
  <path
     id="IMPERIAL CYCLING CLUB"
     class="s0"
     aria-label="IMPERIAL CYCLING CLUB"
     d="m 305.4,34.5 h 3.8 V 2.6 h -3.8 z m 39.3,0 V 2.6 h -3.1 L 330.6,25 319.5,2.6 h -3.1 v 31.9 h 3.7 V 11.4 l 9.6,19.2 h 1.7 l 9.6,-19.4 0.1,23.3 z M 362.3,2.6 h -10.4 v 31.9 h 3.8 v -9.7 h 6.6 c 6.9,0 11.1,-4.2 11.1,-11.1 0,-6.9 -4.2,-11.1 -11.1,-11.1 z m -0.1,18.2 h -6.5 V 6.5 h 6.5 c 4.8,0 7.4,2.6 7.4,7.2 0,4.5 -2.6,7.1 -7.4,7.1 z M 382,30.5 V 20.2 h 13.3 V 16.3 H 382 V 6.5 h 15 V 2.6 h -18.8 v 31.9 h 19.3 v -4 z m 42.8,4 -6.3,-10.7 c 3.7,-1.6 5.9,-5.2 5.9,-10.1 0,-6.9 -4.2,-11.1 -11.1,-11.1 h -10.4 v 31.9 h 3.8 v -9.7 h 6.6 c 0.5,0 1.1,-0.1 1.6,-0.1 l 5.8,9.8 z M 413.1,20.9 h -6.4 V 6.5 h 6.4 c 4.9,0 7.4,2.6 7.4,7.2 0,4.5 -2.5,7.2 -7.4,7.2 z m 16.6,13.6 h 3.8 V 2.6 h -3.8 z m 30.9,0 h 4 l -12.1,-32 h -3.7 l -12.1,32 h 3.9 l 2.9,-8 h 14.2 z m -15.7,-11.6 5.7,-15.7 5.7,15.7 z m 22.9,11.6 H 486 v -4 H 471.6 V 2.6 h -3.8 z M 317.2,81.8 c 4.2,0 7.8,-1.7 10.2,-5 l -2.5,-2.9 c -2,2.6 -4.5,3.9 -7.5,3.9 -6,0 -10.4,-5.2 -10.4,-12.3 0,-7.1 4.4,-12.3 10.4,-12.3 3,0 5.5,1.2 7.5,3.8 l 2.5,-2.9 c -2.4,-3.2 -6,-4.9 -10.1,-4.9 -8.1,0 -14.1,6.9 -14.1,16.3 0,9.4 6,16.3 14,16.3 z m 35.2,-32.3 h -3.8 L 340,66.4 331.5,49.5 h -4 L 338,70.3 v 11.2 h 3.8 V 70.4 Z m 13.8,32.3 c 4.2,0 7.7,-1.7 10.2,-5 l -2.5,-2.9 c -2,2.6 -4.6,3.9 -7.5,3.9 -6,0 -10.4,-5.2 -10.4,-12.3 0,-7.1 4.4,-12.3 10.4,-12.3 2.9,0 5.5,1.2 7.5,3.8 l 2.5,-2.9 c -2.5,-3.3 -6,-4.9 -10.1,-4.9 -8.1,0 -14.1,6.8 -14.1,16.3 0,9.4 6,16.3 14,16.3 z M 381,81.4 h 18.3 v -3.9 h -14.5 v -28 H 381 Z m 21.9,0 h 3.8 V 49.5 h -3.8 z M 433,49.5 V 73.3 L 417,49.5 h -3.1 v 31.9 h 3.8 V 57.6 l 15.9,23.8 h 3.2 V 49.5 Z m 29.4,26.2 c -1.9,1.4 -4,2 -6.2,2 -6.1,0 -10.6,-5.2 -10.6,-12.3 0,-7.1 4.5,-12.2 10.6,-12.2 3,0 5.5,1.1 7.7,3.7 l 2.4,-2.9 c -2.4,-3.2 -6,-4.9 -10.2,-4.9 -8.3,0 -14.3,6.9 -14.3,16.3 0,9.5 6,16.4 14.2,16.4 3.7,0 7.4,-1.4 10.1,-4.1 V 65.3 h -3.7 z m -145.1,53.1 c 4.1,0 7.7,-1.8 10.1,-5 l -2.4,-2.9 c -2.1,2.6 -4.6,3.8 -7.5,3.8 -6,0 -10.5,-5.2 -10.5,-12.3 0,-7 4.5,-12.2 10.5,-12.2 2.9,0 5.4,1.2 7.5,3.8 l 2.4,-2.9 c -2.4,-3.3 -6,-5 -10.1,-5 -8.1,0 -14.1,6.9 -14.1,16.3 0,9.5 6,16.4 14.1,16.4 z m 14.8,-0.4 h 18.2 v -4 H 335.9 V 96.5 h -3.8 z m 32.4,0.4 c 7,0 11.2,-4.9 11.2,-14.2 V 96.5 H 372 v 17.9 c 0,7.1 -2.7,10.3 -7.5,10.3 -4.8,0 -7.5,-3.2 -7.5,-10.3 V 96.5 h -3.8 v 18.1 c 0,9.3 4.3,14.2 11.3,14.2 z m 36.2,-17 c 2,-1.2 3.5,-3.6 3.5,-7.1 0,-5.1 -3.4,-8.2 -9.5,-8.2 h -11.9 v 31.9 h 12.6 c 6.8,0 10.2,-3.2 10.2,-8.6 0,-4.3 -1.9,-7 -4.9,-8 z m -6.4,-11.6 c 3.9,0 6.1,1.7 6.1,5.1 0,3.3 -2.2,5.1 -6.1,5.1 h -7.7 v -10.2 z m 0.9,24.5 h -8.7 v -10.6 h 8.7 c 4.2,0 6.5,1.6 6.5,5.3 0,3.7 -2.3,5.3 -6.5,5.3 z"
     style="fill:#ffffff;fill-opacity:1" />
  <metadata
     id="metadata1">
    <rdf:RDF>
      <cc:Work
         rdf:about="">
        <dc:title>Neues Projekt</dc:title>
      </cc:Work>
    </rdf:RDF>
  </metadata>
</svg>
