<?xml version="1.0" encoding="UTF-8" standalone="no"?>
<svg
   version="1.2"
   viewBox="0 0 272 272"
   width="272"
   height="272"
   id="svg1"
   sodipodi:docname="ICC-Triangle-Thumbnail.svg"
   inkscape:version="1.3.1 (91b66b0783, 2023-11-16)"
   xmlns:inkscape="http://www.inkscape.org/namespaces/inkscape"
   xmlns:sodipodi="http://sodipodi.sourceforge.net/DTD/sodipodi-0.dtd"
   xmlns="http://www.w3.org/2000/svg"
   xmlns:svg="http://www.w3.org/2000/svg"
   xmlns:rdf="http://www.w3.org/1999/02/22-rdf-syntax-ns#"
   xmlns:cc="http://creativecommons.org/ns#"
   xmlns:dc="http://purl.org/dc/elements/1.1/">
  <defs
     id="defs1" />
  <sodipodi:namedview
     id="namedview1"
     pagecolor="#ffffff"
     bordercolor="#000000"
     borderopacity="0.25"
     inkscape:showpageshadow="2"
     inkscape:pageopacity="0.0"
     inkscape:pagecheckerboard="0"
     inkscape:deskcolor="#d1d1d1"
     inkscape:zoom="0.73611111"
     inkscape:cx="317.20755"
     inkscape:cy="-120.22642"
     inkscape:window-width="1920"
     inkscape:window-height="991"
     inkscape:window-x="-9"
     inkscape:window-y="-9"
     inkscape:window-maximized="1"
     inkscape:current-layer="svg1" />
  <title
     id="title1">Neues Projekt</title>
  <style
     id="style1">
		.s0 { fill: #000000 } 
	</style>
  <rect
     style="fill:#ffffff;fill-rule:evenodd;stroke:#ffffff;stroke-width:1.88976;stroke-linejoin:round"
     id="rect1"
     width="339.62265"
     height="316.52829"
     x="-39.396225"
     y="-20.377359" />
  <path
     id="ICC"
     class="s0"
     aria-label="ICC"
     d="m 166,-383 h 32.7 l 23.1,-126 h -32.7 z m 121,2.5 c 21.3,0 38.4,-8.4 49.6,-23.7 l -20.8,-20.6 c -7.2,9.6 -16.1,14.8 -27.2,14.8 -19,0 -32.2,-14.4 -32.2,-36 0,-21.6 13.2,-36 32.2,-36 11.1,0 20,5.2 27.2,14.8 l 20.8,-20.6 c -11.2,-15.3 -28.3,-23.7 -49.6,-23.7 -36.7,0 -63.6,27.2 -63.6,65.5 0,38.3 26.9,65.5 63.6,65.5 z m 117.8,0 c 21.3,0 38.4,-8.4 49.6,-23.7 l -20.8,-20.6 c -7.2,9.6 -16.1,14.8 -27.2,14.8 -19,0 -32.2,-14.4 -32.2,-36 0,-21.6 13.2,-36 32.2,-36 11.1,0 20,5.2 27.2,14.8 l 20.8,-20.6 c -11.2,-15.3 -28.3,-23.7 -49.6,-23.7 -36.7,0 -63.6,27.2 -63.6,65.5 0,38.3 26.9,65.5 63.6,65.5 z" />
  <path
     id="ICCC"
     class="s0"
     aria-label="ICCC"
     d="m -129,-150 h 32.7 l 23.1,-126 h -32.7 z m 118.7,2.5 c 21.3,0 38.5,-8.4 49.7,-23.7 l -20.8,-20.6 c -7.3,9.6 -16.2,14.8 -27.2,14.8 -19,0 -32.2,-14.4 -32.2,-36 0,-21.6 13.2,-36 32.2,-36 11,0 19.9,5.2 27.2,14.8 l 20.8,-20.6 c -11.2,-15.3 -28.4,-23.7 -49.7,-23.7 -36.6,0 -63.5,27.2 -63.5,65.5 0,38.3 26.9,65.5 63.5,65.5 z m 115.6,0 c 21.3,0 38.4,-8.4 49.6,-23.7 l -20.8,-20.6 c -7.2,9.6 -16.1,14.8 -27.2,14.8 -19,0 -32.2,-14.4 -32.2,-36 0,-21.6 13.2,-36 32.2,-36 11.1,0 20,5.2 27.2,14.8 l 20.8,-20.6 c -11.2,-15.3 -28.3,-23.7 -49.6,-23.7 -36.7,0 -63.6,27.2 -63.6,65.5 0,38.3 26.9,65.5 63.6,65.5 z m 115.5,0 c 21.3,0 38.5,-8.4 49.7,-23.7 l -20.8,-20.6 c -7.3,9.6 -16.2,14.8 -27.2,14.8 -19,0 -32.2,-14.4 -32.2,-36 0,-21.6 13.2,-36 32.2,-36 11,0 19.9,5.2 27.2,14.8 l 20.8,-20.6 c -11.2,-15.3 -28.4,-23.7 -49.7,-23.7 -36.6,0 -63.5,27.2 -63.5,65.5 0,38.3 26.9,65.5 63.5,65.5 z" />
  <path
     id="ICL"
     class="s0"
     aria-label="ICL"
     d="m 430.9,-95 h 32.7 v -126 h -32.7 z m 112.1,2.5 c 21.3,0 38.4,-8.4 49.6,-23.7 l -20.8,-20.6 c -7.2,9.6 -16.1,14.8 -27.2,14.8 -19,0 -32.2,-14.4 -32.2,-36 0,-21.6 13.2,-36 32.2,-36 11.1,0 20,5.2 27.2,14.8 l 20.8,-20.6 c -11.2,-15.3 -28.3,-23.7 -49.6,-23.7 -36.7,0 -63.6,27.2 -63.6,65.5 0,38.3 26.9,65.5 63.6,65.5 z m 62.7,-2.5 h 87.7 v -28.3 H 638.3 V -221 h -32.6 z" />
  <path
     id="C"
     class="s0"
     aria-label="C"
     d="m 82.518868,272.5 c 21.300002,0 38.500002,-8.4 49.700002,-23.7 l -20.8,-20.6 c -7.3,9.6 -16.200002,14.8 -27.200002,14.8 -19,0 -32.2,-14.4 -32.2,-36 0,-21.6 13.2,-36 32.2,-36 11,0 19.900002,5.2 27.200002,14.8 l 20.8,-20.6 c -11.2,-15.3 -28.4,-23.7 -49.700002,-23.7 -36.6,0 -63.5,27.2 -63.5,65.5 0,38.3 26.9,65.5 63.5,65.5 z" />
  <path
     id="C copy"
     class="s0"
     aria-label="C"
     d="m 203.51887,272.5 c 21.3,0 38.5,-8.4 49.7,-23.7 l -20.8,-20.6 c -7.3,9.6 -16.2,14.8 -27.2,14.8 -19,0 -32.2,-14.4 -32.2,-36 0,-21.6 13.2,-36 32.2,-36 11,0 19.9,5.2 27.2,14.8 l 20.8,-20.6 c -11.2,-15.3 -28.4,-23.7 -49.7,-23.7 -36.6,0 -63.5,27.2 -63.5,65.5 0,38.3 26.9,65.5 63.5,65.5 z" />
  <path
     id="L"
     class="s0"
     aria-label="L"
     d="m 759.9,252 h 87.8 V 223.7 H 792.6 V 126 h -32.7 z" />
  <path
     id="I"
     class="s0"
     aria-label="I"
     d="m 114.01887,126 h 32.7 l 23.1,-126 h -32.7 z" />
  <path
     id="IMPERIAL CYCLING CLUB"
     class="s0"
     aria-label="IMPERIAL CYCLING CLUB"
     d="m 471.4,-477 h 3.8 v -31.9 h -3.8 z m 39.3,0 v -31.9 h -3.1 l -11,22.4 -11.1,-22.4 h -3.1 v 31.9 h 3.7 v -23.1 l 9.6,19.2 h 1.7 l 9.6,-19.4 0.1,23.3 z m 17.6,-31.9 h -10.4 v 31.9 h 3.8 v -9.7 h 6.6 c 6.9,0 11.1,-4.2 11.1,-11.1 0,-6.9 -4.2,-11.1 -11.1,-11.1 z m -0.1,18.2 h -6.5 V -505 h 6.5 c 4.8,0 7.4,2.6 7.4,7.2 0,4.5 -2.6,7.1 -7.4,7.1 z m 19.8,9.7 v -10.3 h 13.3 v -3.9 H 548 v -9.8 h 15 v -3.9 h -18.8 v 31.9 h 19.3 v -4 z m 42.8,4 -6.3,-10.7 c 3.7,-1.6 5.9,-5.2 5.9,-10.1 0,-6.9 -4.2,-11.1 -11.1,-11.1 h -10.4 v 31.9 h 3.8 v -9.7 h 6.6 c 0.5,0 1.1,-0.1 1.6,-0.1 l 5.8,9.8 z m -11.7,-13.6 h -6.4 V -505 h 6.4 c 4.9,0 7.4,2.6 7.4,7.2 0,4.5 -2.5,7.2 -7.4,7.2 z m 16.6,13.6 h 3.8 v -31.9 h -3.8 z m 30.9,0 h 4 l -12.1,-32 h -3.7 l -12.1,32 h 3.9 l 2.9,-8 h 14.2 z m -15.7,-11.6 5.7,-15.7 5.7,15.7 z m 22.9,11.6 H 652 v -4 h -14.4 v -27.9 h -3.8 z m -150.6,47.3 c 4.2,0 7.8,-1.7 10.2,-5 l -2.5,-2.9 c -2,2.6 -4.5,3.9 -7.5,3.9 -6,0 -10.4,-5.2 -10.4,-12.3 0,-7.1 4.4,-12.3 10.4,-12.3 3,0 5.5,1.2 7.5,3.8 l 2.5,-2.9 c -2.4,-3.2 -6,-4.9 -10.1,-4.9 -8.1,0 -14.1,6.9 -14.1,16.3 0,9.4 6,16.3 14,16.3 z m 35.2,-32.3 h -3.8 l -8.6,16.9 -8.5,-16.9 h -4 l 10.5,20.8 v 11.2 h 3.8 v -11.1 z m 13.8,32.3 c 4.2,0 7.7,-1.7 10.2,-5 l -2.5,-2.9 c -2,2.6 -4.6,3.9 -7.5,3.9 -6,0 -10.4,-5.2 -10.4,-12.3 0,-7.1 4.4,-12.3 10.4,-12.3 2.9,0 5.5,1.2 7.5,3.8 l 2.5,-2.9 c -2.5,-3.3 -6,-4.9 -10.1,-4.9 -8.1,0 -14.1,6.8 -14.1,16.3 0,9.4 6,16.3 14,16.3 z m 14.8,-0.4 h 18.3 v -3.9 h -14.5 v -28 H 547 Z m 21.9,0 h 3.8 V -462 h -3.8 z M 599,-462 v 23.8 L 583,-462 h -3.1 v 31.9 h 3.8 v -23.8 l 15.9,23.8 h 3.2 V -462 Z m 29.4,26.2 c -1.9,1.4 -4,2 -6.2,2 -6.1,0 -10.6,-5.2 -10.6,-12.3 0,-7.1 4.5,-12.2 10.6,-12.2 3,0 5.5,1.1 7.7,3.7 l 2.4,-2.9 c -2.4,-3.2 -6,-4.9 -10.2,-4.9 -8.3,0 -14.3,6.9 -14.3,16.3 0,9.5 6,16.4 14.2,16.4 3.7,0 7.4,-1.4 10.1,-4.1 v -12.4 h -3.7 z m -145.1,53.1 c 4.1,0 7.7,-1.8 10.1,-5 l -2.4,-2.9 c -2.1,2.6 -4.6,3.8 -7.5,3.8 -6,0 -10.5,-5.2 -10.5,-12.3 0,-7 4.5,-12.2 10.5,-12.2 2.9,0 5.4,1.2 7.5,3.8 l 2.4,-2.9 c -2.4,-3.3 -6,-5 -10.1,-5 -8.1,0 -14.1,6.9 -14.1,16.3 0,9.5 6,16.4 14.1,16.4 z m 14.8,-0.4 h 18.2 v -4 H 501.9 V -415 h -3.8 z m 32.4,0.4 c 7,0 11.2,-4.9 11.2,-14.2 V -415 H 538 v 17.9 c 0,7.1 -2.7,10.3 -7.5,10.3 -4.8,0 -7.5,-3.2 -7.5,-10.3 V -415 h -3.8 v 18.1 c 0,9.3 4.3,14.2 11.3,14.2 z m 36.2,-17 c 2,-1.2 3.5,-3.6 3.5,-7.1 0,-5.1 -3.4,-8.2 -9.5,-8.2 h -11.9 v 31.9 h 12.6 c 6.8,0 10.2,-3.2 10.2,-8.6 0,-4.3 -1.9,-7 -4.9,-8 z m -6.4,-11.6 c 3.9,0 6.1,1.7 6.1,5.1 0,3.3 -2.2,5.1 -6.1,5.1 h -7.7 v -10.2 z m 0.9,24.5 h -8.7 v -10.6 h 8.7 c 4.2,0 6.5,1.6 6.5,5.3 0,3.7 -2.3,5.3 -6.5,5.3 z" />
  <path
     id="IMPERIAL COLLEGE CYCLING CLUB"
     class="s0"
     aria-label="IMPERIAL COLLEGE CYCLING CLUB"
     d="m -128.4,-97 h 4 v -28 h -4 z m 41.8,0 v -28 h -3.3 l -11.5,19.7 -11.7,-19.7 h -3.3 v 28 h 3.8 v -20.3 l 10.2,16.9 h 1.8 l 10.1,-17 0.1,20.4 z m 18.9,-28 h -10.9 v 28 h 4 v -8.5 h 6.9 c 7.3,0 11.7,-3.7 11.7,-9.7 0,-6.1 -4.4,-9.8 -11.7,-9.8 z m -0.1,16 h -6.8 v -12.5 h 6.8 c 5.1,0 7.8,2.3 7.8,6.3 0,4 -2.7,6.2 -7.8,6.2 z m 21.2,8.5 v -9 h 14.1 v -3.4 h -14.1 v -8.6 h 15.8 v -3.5 h -19.8 v 28 h 20.4 v -3.5 z m 45.4,3.5 -6.6,-9.4 c 3.9,-1.4 6.2,-4.5 6.2,-8.8 0,-6.1 -4.4,-9.8 -11.7,-9.8 h -10.9 v 28 h 4 v -8.5 h 6.9 c 0.6,0 1.2,-0.1 1.7,-0.1 l 6.1,8.6 z m -12.3,-11.9 h -6.8 v -12.6 h 6.8 c 5.1,0 7.8,2.3 7.8,6.3 0,4 -2.7,6.3 -7.8,6.3 z M 4.4,-97 h 4 v -28 h -4 z m 32.9,0 h 4.2 l -12.7,-28 h -4 l -12.7,28 h 4.2 l 3,-7 h 14.9 z m -16.5,-10.2 6,-13.7 6,13.7 z M 45.4,-97 h 19.1 v -3.5 H 49.4 V -125 h -4 z m 46.2,0.3 c 4.4,0 8.1,-1.5 10.7,-4.4 l -2.6,-2.5 c -2.2,2.3 -4.8,3.4 -7.9,3.4 -6.3,0 -11,-4.6 -11,-10.8 0,-6.2 4.7,-10.8 11,-10.8 3.1,0 5.7,1.1 7.9,3.4 l 2.6,-2.6 c -2.6,-2.8 -6.3,-4.3 -10.7,-4.3 -8.5,0 -14.8,6 -14.8,14.3 0,8.3 6.3,14.3 14.8,14.3 z m 28,0 c 8.6,0 14.9,-6.1 14.9,-14.3 0,-8.2 -6.3,-14.3 -14.9,-14.3 -8.6,0 -14.9,6.1 -14.9,14.3 0,8.2 6.3,14.3 14.9,14.3 z m 0,-3.5 c -6.2,0 -10.9,-4.6 -10.9,-10.8 0,-6.2 4.7,-10.8 10.9,-10.8 6.2,0 10.9,4.6 10.9,10.8 0,6.2 -4.7,10.8 -10.9,10.8 z m 20.6,3.2 h 19.2 v -3.5 H 144.2 V -125 h -4 z m 23.4,0 h 19.1 v -3.5 H 167.6 V -125 h -4 z m 27.3,-3.5 v -9 H 205 v -3.4 h -14.1 v -8.6 h 15.8 v -3.5 h -19.8 v 28 h 20.3 v -3.5 z m 41.7,-1.5 c -2,1.2 -4.2,1.8 -6.5,1.8 -6.5,0 -11.2,-4.6 -11.2,-10.8 0,-6.2 4.7,-10.8 11.2,-10.8 3.2,0 5.8,1 8.1,3.3 l 2.5,-2.5 c -2.6,-2.8 -6.3,-4.3 -10.8,-4.3 -8.6,0 -15,6 -15,14.3 0,8.3 6.4,14.3 15,14.3 3.9,0 7.8,-1.2 10.6,-3.5 v -11 h -3.9 z m 15.1,1.6 v -9 h 14 v -3.4 h -14 v -8.6 h 15.8 v -3.5 h -19.8 v 28 H 264 v -3.5 z m -363.6,48.8 c 4.3,0 8.1,-1.5 10.7,-4.4 l -2.6,-2.5 c -2.2,2.3 -4.8,3.3 -7.9,3.3 -6.3,0 -11,-4.5 -11,-10.7 0,-6.2 4.7,-10.8 11,-10.8 3.1,0 5.7,1.1 7.9,3.3 l 2.6,-2.5 c -2.6,-2.9 -6.4,-4.3 -10.7,-4.3 -8.5,0 -14.8,6 -14.8,14.3 0,8.3 6.3,14.3 14.8,14.3 z m 37.3,-28.3 h -3.9 l -9,14.7 -9,-14.7 h -4.3 l 11.2,18.2 v 9.8 h 3.9 v -9.7 z m 15,28.3 c 4.3,0 8.1,-1.5 10.7,-4.4 l -2.6,-2.5 c -2.2,2.3 -4.8,3.4 -7.9,3.4 -6.3,0 -11,-4.6 -11,-10.8 0,-6.2 4.7,-10.8 11,-10.8 3.1,0 5.7,1.1 7.9,3.4 l 2.6,-2.6 c -2.6,-2.8 -6.4,-4.3 -10.7,-4.3 -8.5,0 -14.8,6 -14.8,14.3 0,8.3 6.3,14.3 14.8,14.3 z m 16,-0.3 h 19.1 v -3.5 h -15.1 v -24.5 h -4 z m 23.3,0 h 4 v -28 h -4 z m 32.1,-28 V -59 L -9,-79.9 h -3.3 v 28 h 4 v -20.9 l 16.8,20.9 h 3.3 v -28 z m 31.4,23 c -2,1.2 -4.2,1.8 -6.5,1.8 -6.5,0 -11.2,-4.6 -11.2,-10.8 0,-6.2 4.7,-10.8 11.2,-10.8 3.2,0 5.8,1 8.1,3.3 l 2.5,-2.5 c -2.6,-2.8 -6.3,-4.3 -10.8,-4.3 -8.6,0 -15,6 -15,14.3 0,8.3 6.4,14.3 15,14.3 3.9,0 7.8,-1.2 10.6,-3.5 v -11 h -3.9 z m 34,5.4 c 4.3,0 8.1,-1.5 10.7,-4.4 l -2.6,-2.5 c -2.2,2.3 -4.8,3.3 -7.9,3.3 -6.3,0 -11,-4.5 -11,-10.7 0,-6.2 4.7,-10.8 11,-10.8 3.1,0 5.7,1.1 7.9,3.3 l 2.6,-2.5 c -2.6,-2.9 -6.4,-4.3 -10.7,-4.3 -8.5,0 -14.8,6 -14.8,14.3 0,8.3 6.3,14.3 14.8,14.3 z m 16,-0.3 h 19.1 v -3.5 H 93.2 v -24.5 h -4 z m 34.5,0.3 c 7.4,0 11.8,-4.3 11.8,-12.4 v -15.9 h -3.9 v 15.7 c 0,6.2 -2.9,9 -7.9,9 -5,0 -7.9,-2.8 -7.9,-9 v -15.7 h -4 v 15.9 c 0,8.1 4.5,12.4 11.9,12.4 z m 38.4,-14.8 c 2.2,-1.1 3.8,-3.2 3.8,-6.3 0,-4.5 -3.6,-7.2 -10,-7.2 h -12.6 v 28 h 13.4 c 7,0 10.7,-2.8 10.7,-7.6 0,-3.7 -2.1,-6.1 -5.3,-6.9 z m -6.6,-10.3 c 4.1,0 6.4,1.5 6.4,4.5 0,3 -2.3,4.5 -6.4,4.5 h -8.2 v -9 z m 1,21.5 h -9.2 v -9.3 h 9.2 c 4.4,0 6.8,1.5 6.8,4.7 0,3.2 -2.4,4.6 -6.8,4.6 z" />
  <path
     id="path1"
     class="s0"
     aria-label="IMPERIAL COLLEGE CYCLING CLUB"
     d="m 434.6,34 h 6.1 V 4.7 h -6.1 z M 477,34 476.9,4.8 h -5 L 462.1,23 452.1,4.8 H 447 V 34 h 5.8 V 16.9 l 7.8,14 h 2.8 l 7.8,-14.4 V 34 Z M 494.8,4.8 H 483.3 V 34 h 6.2 v -8 h 5.3 c 7.2,0 11.6,-4.1 11.6,-10.6 0,-6.6 -4.4,-10.6 -11.6,-10.6 z m -0.3,15.7 h -5 V 10.3 h 5 c 3.8,0 5.7,1.9 5.7,5.1 0,3.2 -1.9,5.1 -5.7,5.1 z m 22.4,8.1 v -6.8 h 12.3 v -5.2 h -12.3 v -6.4 h 14 V 4.8 H 510.8 V 34 h 20.6 v -5.4 z m 42.9,5.4 -6,-9.4 c 3.5,-1.6 5.5,-4.8 5.5,-9.2 0,-6.6 -4.4,-10.6 -11.5,-10.6 H 536.2 V 34 h 6.2 v -8.1 h 5.4 0.3 l 5.1,8.1 z m -6.7,-18.6 c 0,3.2 -1.9,5.1 -5.7,5.1 h -5 V 10.3 h 5 c 3.8,0 5.7,1.9 5.7,5.1 z M 564.2,34 h 6.1 V 4.8 h -6.1 z m 32.3,0 H 603 L 591.1,4.7 H 585 L 573.1,34 h 6.3 l 2.4,-6.3 h 12.3 z m -12.7,-11.4 4.2,-11.2 4.2,11.2 z m 22,11.4 h 19.5 V 28.5 H 612 V 4.8 h -6.2 z m 46.4,0.5 c 4.7,0 8.5,-1.9 11,-5.3 l -3.9,-4 c -1.8,2.3 -4,3.5 -6.7,3.5 -5,0 -8.5,-3.9 -8.5,-9.4 0,-5.5 3.5,-9.3 8.5,-9.3 2.7,0 4.9,1.1 6.7,3.4 l 3.9,-4 C 660.7,6 656.9,4.2 652.3,4.2 c -8.3,0 -14.5,6.3 -14.5,15.1 0,8.8 6.2,15.2 14.4,15.2 z m 27.5,0 c 8.3,0 14.5,-6.4 14.5,-15.2 0,-8.7 -6.2,-15.1 -14.5,-15.1 -8.4,0 -14.6,6.4 -14.6,15.1 0,8.7 6.2,15.2 14.6,15.2 z m 0,-5.8 c -4.8,0 -8.3,-3.8 -8.3,-9.4 0,-5.5 3.5,-9.3 8.3,-9.3 4.7,0 8.3,3.8 8.3,9.3 0,5.6 -3.6,9.4 -8.3,9.4 z m 19.2,5.3 h 19.5 V 28.4 H 705 V 4.7 h -6.1 z m 22.9,0 h 19.5 V 28.5 H 728 V 4.7 h -6.2 z m 29.1,-5.4 v -6.8 h 12.3 v -5.2 h -12.3 v -6.4 h 14 V 4.8 H 744.8 V 34 h 20.6 v -5.4 z m 37.3,-1.1 c -1.6,0.9 -3.2,1.3 -4.8,1.3 -5.1,0 -8.7,-3.9 -8.7,-9.4 0,-5.6 3.6,-9.4 8.7,-9.4 2.7,0 5,1.1 6.9,3.3 l 4,-4 c -2.6,-3.3 -6.5,-5 -11.2,-5 -8.4,0 -14.6,6.3 -14.6,15.1 0,8.8 6.2,15.1 14.5,15.1 3.8,0 7.9,-1.3 10.8,-3.7 V 18.9 h -5.6 z m 17.4,1.1 v -6.7 h 12.3 v -5.3 h -12.3 v -6.4 h 14 V 4.8 h -20.1 v 29.3 h 20.6 v -5.5 z m -358.3,53 c 4.6,0 8.5,-1.9 11,-5.3 l -4,-4 c -1.7,2.3 -4,3.5 -6.6,3.5 -5,0 -8.6,-3.9 -8.6,-9.4 0,-5.5 3.6,-9.3 8.6,-9.3 2.6,0 4.9,1.1 6.6,3.4 l 4,-4 c -2.5,-3.4 -6.4,-5.2 -11,-5.2 -8.2,0 -14.4,6.3 -14.4,15.1 0,8.9 6.2,15.2 14.4,15.2 z m 38,-29.8 h -6.1 l -7.1,13 -7.1,-13 h -6.5 l 10.3,18.8 v 10.5 h 6.1 V 70.7 Z m 14.2,29.8 c 4.6,0 8.5,-1.9 11,-5.3 l -4,-4 c -1.7,2.3 -4,3.5 -6.6,3.5 -5,0 -8.6,-3.9 -8.6,-9.4 0,-5.5 3.6,-9.3 8.6,-9.3 2.6,0 4.9,1.1 6.6,3.4 l 4,-4 c -2.5,-3.4 -6.4,-5.2 -11,-5.2 -8.2,0 -14.4,6.3 -14.4,15.1 0,8.8 6.2,15.2 14.4,15.2 z m 15.1,-0.5 h 19.5 V 75.5 H 520.8 V 51.8 h -6.2 z m 23,0 h 6.1 V 51.8 h -6.1 z M 568.4,51.9 V 69.6 L 555.1,51.9 h -5 v 29.2 h 6 V 63.4 l 13.3,17.7 h 5 V 51.9 Z m 30.4,22.7 c -1.5,0.9 -3.1,1.3 -4.8,1.3 -5.1,0 -8.6,-3.9 -8.6,-9.4 0,-5.6 3.5,-9.4 8.7,-9.4 2.7,0 4.9,1.1 6.9,3.3 l 3.9,-4 c -2.6,-3.3 -6.4,-5 -11.1,-5 -8.5,0 -14.6,6.3 -14.6,15.1 0,8.8 6.1,15.1 14.5,15.1 3.8,0 7.8,-1.3 10.7,-3.7 V 66 h -5.6 z m 34.8,7.1 c 4.7,0 8.5,-1.9 11,-5.3 l -4,-4 c -1.7,2.3 -4,3.5 -6.6,3.5 -5,0 -8.6,-3.8 -8.6,-9.4 0,-5.5 3.6,-9.3 8.6,-9.3 2.6,0 4.9,1.1 6.6,3.4 l 4,-4 c -2.5,-3.4 -6.3,-5.2 -10.9,-5.2 -8.3,0 -14.5,6.3 -14.5,15.1 0,8.9 6.2,15.2 14.4,15.2 z m 15.1,-0.5 h 19.5 V 75.6 H 654.9 V 51.9 h -6.2 z m 34.5,0.5 c 7.5,0 12,-4.8 12,-13.4 V 51.9 h -6.1 v 16.2 c 0,5.5 -2.1,7.8 -5.9,7.8 -3.7,0 -5.9,-2.3 -5.9,-7.8 V 51.9 h -6.2 v 16.4 c 0,8.6 4.5,13.4 12.1,13.4 z M 720.8,66 c 2.2,-1.3 3.6,-3.5 3.6,-6.4 0,-4.6 -3.5,-7.7 -10.1,-7.7 h -13 v 29.3 h 13.8 c 6.9,0 10.6,-2.9 10.6,-8 0,-3.7 -1.9,-6.2 -4.9,-7.2 z m -7.3,-9 c 3,0 4.7,1.2 4.7,3.5 0,2.3 -1.7,3.4 -4.7,3.4 h -6.1 V 57 Z m 1.1,19.1 h -7.2 v -7.2 h 7.2 c 3.2,0 4.9,1.1 4.9,3.6 0,2.5 -1.7,3.6 -4.9,3.6 z" />
  <metadata
     id="metadata1">
    <rdf:RDF>
      <cc:Work
         rdf:about="">
        <dc:title>Neues Projekt</dc:title>
      </cc:Work>
    </rdf:RDF>
  </metadata>
</svg>
