<?xml version="1.0" encoding="UTF-8" standalone="no"?>
<svg
   version="1.2"
   viewBox="0 0 375 224.89999"
   width="375"
   height="224.89999"
   id="svg1"
   sodipodi:docname="Neues Projekt3.svg"
   inkscape:version="1.3.1 (91b66b0783, 2023-11-16)"
   xmlns:inkscape="http://www.inkscape.org/namespaces/inkscape"
   xmlns:sodipodi="http://sodipodi.sourceforge.net/DTD/sodipodi-0.dtd"
   xmlns="http://www.w3.org/2000/svg"
   xmlns:svg="http://www.w3.org/2000/svg">
  <defs
     id="defs1" />
  <sodipodi:namedview
     id="namedview1"
     pagecolor="#ffffff"
     bordercolor="#000000"
     borderopacity="0.25"
     inkscape:showpageshadow="2"
     inkscape:pageopacity="0.0"
     inkscape:pagecheckerboard="0"
     inkscape:deskcolor="#d1d1d1"
     inkscape:zoom="0.73611111"
     inkscape:cx="311.77358"
     inkscape:cy="-21.056604"
     inkscape:window-width="1920"
     inkscape:window-height="991"
     inkscape:window-x="-9"
     inkscape:window-y="-9"
     inkscape:window-maximized="1"
     inkscape:current-layer="svg1" />
  <title
     id="title1">Neues Projekt</title>
  <style
     id="style1">
		.s0 { fill: #000000 } 
	</style>
  <path
     id="ICC"
     class="s0"
     aria-label="ICC"
     d="m 160.9,-180.5 h 32.7 l 23.1,-126 H 184 Z m 121,2.5 c 21.3,0 38.4,-8.4 49.6,-23.7 l -20.8,-20.6 c -7.2,9.6 -16.1,14.8 -27.2,14.8 -19,0 -32.2,-14.4 -32.2,-36 0,-21.6 13.2,-36 32.2,-36 11.1,0 20,5.2 27.2,14.8 l 20.8,-20.6 c -11.2,-15.3 -28.3,-23.7 -49.6,-23.7 -36.7,0 -63.6,27.2 -63.6,65.5 0,38.3 26.9,65.5 63.6,65.5 z m 117.8,0 c 21.3,0 38.4,-8.4 49.6,-23.7 l -20.8,-20.6 c -7.2,9.6 -16.1,14.8 -27.2,14.8 -19,0 -32.2,-14.4 -32.2,-36 0,-21.6 13.2,-36 32.2,-36 11.1,0 20,5.2 27.2,14.8 l 20.8,-20.6 C 438.1,-300.6 421,-309 399.7,-309 c -36.7,0 -63.6,27.2 -63.6,65.5 0,38.3 26.9,65.5 63.6,65.5 z" />
  <path
     id="ICC copy"
     class="s0"
     aria-label="ICC"
     d="M 1.9,128.5 H 34.6 L 57.7,2.5 H 25 Z m 121,2.5 c 21.3,0 38.4,-8.4 49.6,-23.7 L 151.7,86.7 c -7.2,9.6 -16.1,14.8 -27.2,14.8 -19,0 -32.2,-14.4 -32.2,-36 0,-21.6 13.2,-36 32.2,-36 11.1,0 20,5.2 27.2,14.8 L 172.5,23.7 C 161.3,8.4 144.2,0 122.9,0 86.2,0 59.3,27.2 59.3,65.5 c 0,38.3 26.9,65.5 63.6,65.5 z m 117.8,0 c 21.3,0 38.4,-8.4 49.6,-23.7 L 269.5,86.7 c -7.2,9.6 -16.1,14.8 -27.2,14.8 -19,0 -32.2,-14.4 -32.2,-36 0,-21.6 13.2,-36 32.2,-36 11.1,0 20,5.2 27.2,14.8 L 290.3,23.7 C 279.1,8.4 262,0 240.7,0 204,0 177.1,27.2 177.1,65.5 c 0,38.3 26.9,65.5 63.6,65.5 z"
     style="fill:#ffffff;fill-opacity:1" />
  <path
     id="ICL"
     class="s0"
     aria-label="ICL"
     d="m 425.8,107.5 h 32.7 v -126 h -32.7 z m 112.1,2.5 c 21.3,0 38.4,-8.4 49.6,-23.7 L 566.7,65.7 c -7.2,9.6 -16.1,14.8 -27.2,14.8 -19,0 -32.2,-14.4 -32.2,-36 0,-21.6 13.2,-36 32.2,-36 11.1,0 20,5.2 27.2,14.8 L 587.5,2.7 C 576.3,-12.6 559.2,-21 537.9,-21 c -36.7,0 -63.6,27.2 -63.6,65.5 0,38.3 26.9,65.5 63.6,65.5 z m 62.7,-2.5 h 87.7 V 79.2 h -55.1 v -97.7 h -32.6 z" />
  <path
     id="C"
     class="s0"
     aria-label="C"
     d="m 640.4,457 c 21.3,0 38.5,-8.4 49.7,-23.7 l -20.8,-20.6 c -7.3,9.6 -16.2,14.8 -27.2,14.8 -19,0 -32.2,-14.4 -32.2,-36 0,-21.6 13.2,-36 32.2,-36 11,0 19.9,5.2 27.2,14.8 l 20.8,-20.6 C 678.9,334.4 661.7,326 640.4,326 c -36.6,0 -63.5,27.2 -63.5,65.5 0,38.3 26.9,65.5 63.5,65.5 z" />
  <path
     id="L"
     class="s0"
     aria-label="L"
     d="m 754.8,454.5 h 87.8 v -28.3 h -55.1 v -97.7 h -32.7 z" />
  <path
     id="I"
     class="s0"
     aria-label="I"
     d="m 707,314.5 h 26.7 v -126 H 707 Z" />
  <path
     id="IMPERIAL CYCLING CLUB"
     class="s0"
     aria-label="IMPERIAL CYCLING CLUB"
     d="m 466.3,-274.5 h 3.8 v -31.9 h -3.8 z m 39.3,0 v -31.9 h -3.1 l -11,22.4 -11.1,-22.4 h -3.1 v 31.9 h 3.7 v -23.1 l 9.6,19.2 h 1.7 l 9.6,-19.4 0.1,23.3 z m 17.6,-31.9 h -10.4 v 31.9 h 3.8 v -9.7 h 6.6 c 6.9,0 11.1,-4.2 11.1,-11.1 0,-6.9 -4.2,-11.1 -11.1,-11.1 z m -0.1,18.2 h -6.5 v -14.3 h 6.5 c 4.8,0 7.4,2.6 7.4,7.2 0,4.5 -2.6,7.1 -7.4,7.1 z m 19.8,9.7 v -10.3 h 13.3 v -3.9 h -13.3 v -9.8 h 15 v -3.9 h -18.8 v 31.9 h 19.3 v -4 z m 42.8,4 -6.3,-10.7 c 3.7,-1.6 5.9,-5.2 5.9,-10.1 0,-6.9 -4.2,-11.1 -11.1,-11.1 h -10.4 v 31.9 h 3.8 v -9.7 h 6.6 c 0.5,0 1.1,-0.1 1.6,-0.1 l 5.8,9.8 z M 574,-288.1 h -6.4 v -14.4 h 6.4 c 4.9,0 7.4,2.6 7.4,7.2 0,4.5 -2.5,7.2 -7.4,7.2 z m 16.6,13.6 h 3.8 v -31.9 h -3.8 z m 30.9,0 h 4 l -12.1,-32 h -3.7 l -12.1,32 h 3.9 l 2.9,-8 h 14.2 z m -15.7,-11.6 5.7,-15.7 5.7,15.7 z m 22.9,11.6 h 18.2 v -4 h -14.4 v -27.9 h -3.8 z m -150.6,47.3 c 4.2,0 7.8,-1.7 10.2,-5 l -2.5,-2.9 c -2,2.6 -4.5,3.9 -7.5,3.9 -6,0 -10.4,-5.2 -10.4,-12.3 0,-7.1 4.4,-12.3 10.4,-12.3 3,0 5.5,1.2 7.5,3.8 l 2.5,-2.9 c -2.4,-3.2 -6,-4.9 -10.1,-4.9 -8.1,0 -14.1,6.9 -14.1,16.3 0,9.4 6,16.3 14,16.3 z m 35.2,-32.3 h -3.8 l -8.6,16.9 -8.5,-16.9 h -4 l 10.5,20.8 v 11.2 h 3.8 v -11.1 z m 13.8,32.3 c 4.2,0 7.7,-1.7 10.2,-5 l -2.5,-2.9 c -2,2.6 -4.6,3.9 -7.5,3.9 -6,0 -10.4,-5.2 -10.4,-12.3 0,-7.1 4.4,-12.3 10.4,-12.3 2.9,0 5.5,1.2 7.5,3.8 l 2.5,-2.9 c -2.5,-3.3 -6,-4.9 -10.1,-4.9 -8.1,0 -14.1,6.8 -14.1,16.3 0,9.4 6,16.3 14,16.3 z m 14.8,-0.4 h 18.3 v -3.9 h -14.5 v -28 h -3.8 z m 21.9,0 h 3.8 v -31.9 h -3.8 z m 30.1,-31.9 v 23.8 l -16,-23.8 h -3.1 v 31.9 h 3.8 v -23.8 l 15.9,23.8 h 3.2 v -31.9 z m 29.4,26.2 c -1.9,1.4 -4,2 -6.2,2 -6.1,0 -10.6,-5.2 -10.6,-12.3 0,-7.1 4.5,-12.2 10.6,-12.2 3,0 5.5,1.1 7.7,3.7 l 2.4,-2.9 c -2.4,-3.2 -6,-4.9 -10.2,-4.9 -8.3,0 -14.3,6.9 -14.3,16.3 0,9.5 6,16.4 14.2,16.4 3.7,0 7.4,-1.4 10.1,-4.1 v -12.4 h -3.7 z m -145.1,53.1 c 4.1,0 7.7,-1.8 10.1,-5 l -2.4,-2.9 c -2.1,2.6 -4.6,3.8 -7.5,3.8 -6,0 -10.5,-5.2 -10.5,-12.3 0,-7 4.5,-12.2 10.5,-12.2 2.9,0 5.4,1.2 7.5,3.8 l 2.4,-2.9 c -2.4,-3.3 -6,-5 -10.1,-5 -8.1,0 -14.1,6.9 -14.1,16.3 0,9.5 6,16.4 14.1,16.4 z m 14.8,-0.4 h 18.2 v -4 h -14.4 v -27.9 H 493 Z m 32.4,0.4 c 7,0 11.2,-4.9 11.2,-14.2 v -18.1 h -3.7 v 17.9 c 0,7.1 -2.7,10.3 -7.5,10.3 -4.8,0 -7.5,-3.2 -7.5,-10.3 v -17.9 h -3.8 v 18.1 c 0,9.3 4.3,14.2 11.3,14.2 z m 36.2,-17 c 2,-1.2 3.5,-3.6 3.5,-7.1 0,-5.1 -3.4,-8.2 -9.5,-8.2 h -11.9 v 31.9 h 12.6 c 6.8,0 10.2,-3.2 10.2,-8.6 0,-4.3 -1.9,-7 -4.9,-8 z m -6.4,-11.6 c 3.9,0 6.1,1.7 6.1,5.1 0,3.3 -2.2,5.1 -6.1,5.1 h -7.7 v -10.2 z m 0.9,24.5 h -8.7 v -10.6 h 8.7 c 4.2,0 6.5,1.6 6.5,5.3 0,3.7 -2.3,5.3 -6.5,5.3 z" />
  <path
     id="IMPERIAL COLLEGE CYCLING CLUB"
     class="s0"
     aria-label="IMPERIAL COLLEGE CYCLING CLUB"
     d="M 2.3,179.5 H 6.1 V 147.6 H 2.3 Z m 39.7,0 V 147.6 H 38.8 L 27.9,170 16.8,147.6 h -3.1 v 31.9 h 3.6 v -23.1 l 9.7,19.2 h 1.7 l 9.6,-19.4 0.1,23.3 z M 59.9,147.6 H 49.6 v 31.9 h 3.8 v -9.7 h 6.5 c 6.9,0 11.1,-4.2 11.1,-11.1 0,-6.9 -4.2,-11.1 -11.1,-11.1 z m -0.1,18.2 h -6.4 v -14.3 h 6.4 c 4.9,0 7.4,2.6 7.4,7.2 0,4.5 -2.5,7.1 -7.4,7.1 z m 20.2,9.7 v -10.3 h 13.4 v -3.9 H 80 v -9.8 h 15 v -3.9 H 76.2 v 31.9 h 19.3 v -4 z m 43.2,4 -6.3,-10.7 c 3.8,-1.6 5.9,-5.2 5.9,-10.1 0,-6.9 -4.2,-11.1 -11.1,-11.1 h -10.4 v 31.9 h 3.8 v -9.7 h 6.6 c 0.6,0 1.1,-0.1 1.7,-0.1 l 5.7,9.8 z m -11.7,-13.6 h -6.4 v -14.4 h 6.4 c 4.9,0 7.4,2.6 7.4,7.2 0,4.5 -2.5,7.2 -7.4,7.2 z m 17,13.6 h 3.8 v -31.9 h -3.8 z m 31.3,0 h 4 l -12.1,-32 h -3.8 l -12,32 h 3.9 l 2.9,-8 h 14.2 z m -15.8,-11.6 5.8,-15.7 5.7,15.7 z m 23.3,11.6 h 18.2 v -4 h -14.4 v -27.9 h -3.8 z m 43.9,0.3 c 4.2,0 7.7,-1.7 10.2,-5 l -2.5,-2.9 c -2,2.6 -4.6,3.9 -7.5,3.9 -6,0 -10.4,-5.2 -10.4,-12.3 0,-7.1 4.4,-12.3 10.4,-12.3 2.9,0 5.5,1.2 7.5,3.8 l 2.5,-2.9 c -2.5,-3.2 -6,-4.9 -10.1,-4.9 -8.1,0 -14.1,6.9 -14.1,16.3 0,9.4 6,16.3 14,16.3 z m 26.7,0 c 8.1,0 14.1,-6.9 14.1,-16.3 0,-9.4 -6,-16.3 -14.1,-16.3 -8.2,0 -14.2,7 -14.2,16.3 0,9.3 6,16.3 14.2,16.3 z m 0,-4 c -6,0 -10.4,-5.2 -10.4,-12.3 0,-7.1 4.4,-12.3 10.4,-12.3 5.9,0 10.3,5.2 10.3,12.3 0,7.1 -4.4,12.3 -10.3,12.3 z m 19.5,3.7 h 18.2 v -4 h -14.4 v -28 h -3.8 z m 22.2,0 h 18.2 v -3.9 h -14.4 v -28 h -3.8 z m 26,-3.9 v -10.4 h 13.3 v -3.8 h -13.3 v -9.8 h 15 v -4 h -18.8 v 31.9 h 19.3 v -3.9 z m 39.6,-1.8 c -1.9,1.4 -4,2 -6.2,2 -6.2,0 -10.6,-5.2 -10.6,-12.2 0,-7.2 4.4,-12.3 10.6,-12.3 3,0 5.5,1.1 7.7,3.7 l 2.4,-2.8 c -2.5,-3.3 -6,-5 -10.3,-5 -8.2,0 -14.2,6.9 -14.2,16.4 0,9.4 6,16.3 14.2,16.3 3.7,0 7.4,-1.4 10,-4.1 v -12.4 h -3.6 z m 14.3,1.8 v -10.3 h 13.3 v -3.9 h -13.3 v -9.8 h 15 v -4 h -18.8 v 31.9 H 375 v -3.9 z M 14.1,224.9 c 4.1,0 7.7,-1.7 10.1,-5 L 21.7,217 c -2,2.6 -4.5,3.8 -7.5,3.8 -6,0 -10.4,-5.2 -10.4,-12.2 0,-7.1 4.4,-12.3 10.4,-12.3 3,0 5.5,1.2 7.5,3.8 l 2.5,-2.9 c -2.4,-3.3 -6,-5 -10.1,-5 -8.1,0 -14.1,6.9 -14.1,16.4 0,9.4 6,16.3 14.1,16.3 z m 35.4,-32.3 h -3.7 l -8.6,16.8 -8.5,-16.8 h -4 l 10.5,20.8 v 11.1 H 39 v -11 z m 14.2,32.3 c 4.1,0 7.7,-1.8 10.1,-5 L 71.4,217 c -2.1,2.6 -4.6,3.8 -7.5,3.8 -6,0 -10.5,-5.2 -10.5,-12.3 0,-7 4.5,-12.2 10.5,-12.2 2.9,0 5.4,1.2 7.5,3.8 l 2.4,-2.9 c -2.4,-3.3 -6,-5 -10.1,-5 -8.1,0 -14.1,6.9 -14.1,16.3 0,9.5 6,16.4 14.1,16.4 z m 15.2,-0.4 h 18.2 v -4 H 82.7 v -27.9 h -3.8 z m 22.2,0 h 3.8 v -31.9 h -3.8 z m 30.5,-32 v 23.9 l -16,-23.9 h -3.1 v 32 h 3.8 v -23.8 l 15.9,23.8 h 3.2 v -32 z m 29.8,26.2 c -1.9,1.5 -4,2.1 -6.2,2.1 -6.2,0 -10.6,-5.3 -10.6,-12.3 0,-7.1 4.4,-12.3 10.6,-12.3 3,0 5.5,1.2 7.7,3.7 l 2.4,-2.8 c -2.5,-3.2 -6,-4.9 -10.3,-4.9 -8.2,0 -14.2,6.9 -14.2,16.3 0,9.4 6,16.3 14.2,16.3 3.7,0 7.4,-1.3 10,-4 v -12.5 h -3.6 z m 32.3,6.1 c 4.1,0 7.7,-1.7 10.1,-5 l -2.5,-2.9 c -2,2.6 -4.5,3.9 -7.5,3.9 -6,0 -10.4,-5.2 -10.4,-12.3 0,-7.1 4.4,-12.3 10.4,-12.3 3,0 5.5,1.2 7.5,3.8 l 2.5,-2.8 c -2.4,-3.3 -6,-5 -10.1,-5 -8.1,0 -14.1,6.9 -14.1,16.3 0,9.5 6,16.3 14.1,16.3 z m 15.2,-0.3 h 18.2 v -4 h -14.4 v -27.9 h -3.8 z m 32.7,0.3 c 7,0 11.3,-4.9 11.3,-14.1 v -18.2 h -3.7 v 18 c 0,7.1 -2.8,10.3 -7.6,10.3 -4.7,0 -7.4,-3.2 -7.4,-10.3 v -18 h -3.8 v 18.2 c 0,9.2 4.2,14.1 11.2,14.1 z m 36.6,-16.9 c 2.1,-1.2 3.5,-3.6 3.5,-7.1 0,-5.2 -3.4,-8.3 -9.5,-8.3 h -11.9 v 32 H 273 c 6.7,0 10.1,-3.2 10.1,-8.7 0,-4.2 -1.9,-6.9 -4.9,-7.9 z m -6.3,-11.7 c 3.8,0 6,1.8 6,5.1 0,3.4 -2.2,5.1 -6,5.1 h -7.8 v -10.2 z m 0.9,24.6 h -8.7 v -10.7 h 8.7 c 4.2,0 6.5,1.7 6.5,5.4 0,3.7 -2.3,5.3 -6.5,5.3 z"
     style="fill:#ffffff;fill-opacity:1" />
  <path
     id="path1"
     class="s0"
     aria-label="IMPERIAL COLLEGE CYCLING CLUB"
     d="m 429.5,236.5 h 6.1 v -29.3 h -6.1 z m 42.4,0 -0.1,-29.2 h -5 l -9.8,18.2 -10,-18.2 h -5.1 v 29.2 h 5.8 v -17.1 l 7.8,14 h 2.8 l 7.8,-14.4 v 17.5 z m 17.8,-29.2 h -11.5 v 29.2 h 6.2 v -8 h 5.3 c 7.2,0 11.6,-4.1 11.6,-10.6 0,-6.6 -4.4,-10.6 -11.6,-10.6 z m -0.3,15.7 h -5 v -10.2 h 5 c 3.8,0 5.7,1.9 5.7,5.1 0,3.2 -1.9,5.1 -5.7,5.1 z m 22.4,8.1 v -6.8 h 12.3 v -5.2 h -12.3 v -6.4 h 14 v -5.4 h -20.1 v 29.2 h 20.6 v -5.4 z m 42.9,5.4 -6,-9.4 c 3.5,-1.6 5.5,-4.8 5.5,-9.2 0,-6.6 -4.4,-10.6 -11.5,-10.6 h -11.6 v 29.2 h 6.2 v -8.1 h 5.4 0.3 l 5.1,8.1 z M 548,217.9 c 0,3.2 -1.9,5.1 -5.7,5.1 h -5 v -10.2 h 5 c 3.8,0 5.7,1.9 5.7,5.1 z m 11.1,18.6 h 6.1 v -29.2 h -6.1 z m 32.3,0 h 6.5 L 586,207.2 h -6.1 L 568,236.5 h 6.3 l 2.4,-6.3 H 589 Z m -12.7,-11.4 4.2,-11.2 4.2,11.2 z m 22,11.4 h 19.5 V 231 h -13.3 v -23.7 h -6.2 z m 46.4,0.5 c 4.7,0 8.5,-1.9 11,-5.3 l -3.9,-4 c -1.8,2.3 -4,3.5 -6.7,3.5 -5,0 -8.5,-3.9 -8.5,-9.4 0,-5.5 3.5,-9.3 8.5,-9.3 2.7,0 4.9,1.1 6.7,3.4 l 3.9,-4 c -2.5,-3.4 -6.3,-5.2 -10.9,-5.2 -8.3,0 -14.5,6.3 -14.5,15.1 0,8.8 6.2,15.2 14.4,15.2 z m 27.5,0 c 8.3,0 14.5,-6.4 14.5,-15.2 0,-8.7 -6.2,-15.1 -14.5,-15.1 -8.4,0 -14.6,6.4 -14.6,15.1 0,8.7 6.2,15.2 14.6,15.2 z m 0,-5.8 c -4.8,0 -8.3,-3.8 -8.3,-9.4 0,-5.5 3.5,-9.3 8.3,-9.3 4.7,0 8.3,3.8 8.3,9.3 0,5.6 -3.6,9.4 -8.3,9.4 z m 19.2,5.3 h 19.5 v -5.6 h -13.4 v -23.7 h -6.1 z m 22.9,0 h 19.5 V 231 h -13.3 v -23.8 h -6.2 z m 29.1,-5.4 v -6.8 h 12.3 v -5.2 h -12.3 v -6.4 h 14 v -5.4 h -20.1 v 29.2 h 20.6 v -5.4 z m 37.3,-1.1 c -1.6,0.9 -3.2,1.3 -4.8,1.3 -5.1,0 -8.7,-3.9 -8.7,-9.4 0,-5.6 3.6,-9.4 8.7,-9.4 2.7,0 5,1.1 6.9,3.3 l 4,-4 c -2.6,-3.3 -6.5,-5 -11.2,-5 -8.4,0 -14.6,6.3 -14.6,15.1 0,8.8 6.2,15.1 14.5,15.1 3.8,0 7.9,-1.3 10.8,-3.7 v -11.9 h -5.6 z m 17.4,1.1 v -6.7 h 12.3 v -5.3 h -12.3 v -6.4 h 14 v -5.4 h -20.1 v 29.3 H 815 v -5.5 z m -358.3,53 c 4.6,0 8.5,-1.9 11,-5.3 l -4,-4 c -1.7,2.3 -4,3.5 -6.6,3.5 -5,0 -8.6,-3.9 -8.6,-9.4 0,-5.5 3.6,-9.3 8.6,-9.3 2.6,0 4.9,1.1 6.6,3.4 l 4,-4 c -2.5,-3.4 -6.4,-5.2 -11,-5.2 -8.2,0 -14.4,6.3 -14.4,15.1 0,8.9 6.2,15.2 14.4,15.2 z m 38,-29.8 h -6.1 l -7.1,13 -7.1,-13 h -6.5 l 10.3,18.8 v 10.5 h 6.1 v -10.4 z m 14.2,29.8 c 4.6,0 8.5,-1.9 11,-5.3 l -4,-4 c -1.7,2.3 -4,3.5 -6.6,3.5 -5,0 -8.6,-3.9 -8.6,-9.4 0,-5.5 3.6,-9.3 8.6,-9.3 2.6,0 4.9,1.1 6.6,3.4 l 4,-4 c -2.5,-3.4 -6.4,-5.2 -11,-5.2 -8.2,0 -14.4,6.3 -14.4,15.1 0,8.8 6.2,15.2 14.4,15.2 z m 15.1,-0.5 H 529 V 278 h -13.3 v -23.7 h -6.2 z m 23,0 h 6.1 v -29.3 h -6.1 z m 30.8,-29.2 v 17.7 L 550,254.4 h -5 v 29.2 h 6 v -17.7 l 13.3,17.7 h 5 v -29.2 z m 30.4,22.7 c -1.5,0.9 -3.1,1.3 -4.8,1.3 -5.1,0 -8.6,-3.9 -8.6,-9.4 0,-5.6 3.5,-9.4 8.7,-9.4 2.7,0 4.9,1.1 6.9,3.3 l 3.9,-4 c -2.6,-3.3 -6.4,-5 -11.1,-5 -8.5,0 -14.6,6.3 -14.6,15.1 0,8.8 6.1,15.1 14.5,15.1 3.8,0 7.8,-1.3 10.7,-3.7 v -11.9 h -5.6 z m 34.8,7.1 c 4.7,0 8.5,-1.9 11,-5.3 l -4,-4 c -1.7,2.3 -4,3.5 -6.6,3.5 -5,0 -8.6,-3.8 -8.6,-9.4 0,-5.5 3.6,-9.3 8.6,-9.3 2.6,0 4.9,1.1 6.6,3.4 l 4,-4 c -2.5,-3.4 -6.3,-5.2 -10.9,-5.2 -8.3,0 -14.5,6.3 -14.5,15.1 0,8.9 6.2,15.2 14.4,15.2 z m 15.1,-0.5 h 19.5 v -5.6 h -13.3 v -23.7 h -6.2 z m 34.5,0.5 c 7.5,0 12,-4.8 12,-13.4 V 254.4 H 684 v 16.2 c 0,5.5 -2.1,7.8 -5.9,7.8 -3.7,0 -5.9,-2.3 -5.9,-7.8 V 254.4 H 666 v 16.4 c 0,8.6 4.5,13.4 12.1,13.4 z m 37.6,-15.7 c 2.2,-1.3 3.6,-3.5 3.6,-6.4 0,-4.6 -3.5,-7.7 -10.1,-7.7 h -13 v 29.3 H 710 c 6.9,0 10.6,-2.9 10.6,-8 0,-3.7 -1.9,-6.2 -4.9,-7.2 z m -7.3,-9 c 3,0 4.7,1.2 4.7,3.5 0,2.3 -1.7,3.4 -4.7,3.4 h -6.1 v -6.9 z m 1.1,19.1 h -7.2 v -7.2 h 7.2 c 3.2,0 4.9,1.1 4.9,3.6 0,2.5 -1.7,3.6 -4.9,3.6 z" />
</svg>
