<?xml version="1.0" encoding="UTF-8" standalone="no"?>
<svg
   version="1.2"
   viewBox="0 0 289.52829 300.39624"
   width="289.52829"
   height="300.39624"
   id="svg1"
   xmlns="http://www.w3.org/2000/svg"
   xmlns:svg="http://www.w3.org/2000/svg"
   xmlns:rdf="http://www.w3.org/1999/02/22-rdf-syntax-ns#"
   xmlns:cc="http://creativecommons.org/ns#"
   xmlns:dc="http://purl.org/dc/elements/1.1/">
  <defs
     id="defs1" />
  <title
     id="title1">Neues Projekt</title>
  <style
     id="style1">
		.s0 { fill: #000000 } 
	</style>
  <rect
     style="fill:#ffffff;fill-opacity:1;fill-rule:evenodd;stroke-width:1.88976;stroke-linejoin:round;stroke:#ffffff;stroke-opacity:1"
     id="rect1"
     width="345.05661"
     height="338.26416"
     x="-19.018867"
     y="-32.603775" />
  <path
     id="ICC"
     class="s0"
     aria-label="ICC"
     d="m 296.20755,-343.51887 h 32.7 l 23.1,-126 h -32.7 z m 121,2.5 c 21.3,0 38.4,-8.4 49.6,-23.7 l -20.8,-20.6 c -7.2,9.6 -16.1,14.8 -27.2,14.8 -19,0 -32.2,-14.4 -32.2,-36 0,-21.6 13.2,-36 32.2,-36 11.1,0 20,5.2 27.2,14.8 l 20.8,-20.6 c -11.2,-15.3 -28.3,-23.7 -49.6,-23.7 -36.7,0 -63.6,27.2 -63.6,65.5 0,38.3 26.9,65.5 63.6,65.5 z m 117.8,0 c 21.3,0 38.4,-8.4 49.6,-23.7 l -20.8,-20.6 c -7.2,9.6 -16.1,14.8 -27.2,14.8 -19,0 -32.2,-14.4 -32.2,-36 0,-21.6 13.2,-36 32.2,-36 11.1,0 20,5.2 27.2,14.8 l 20.8,-20.6 c -11.2,-15.3 -28.3,-23.7 -49.6,-23.7 -36.7,0 -63.6,27.2 -63.6,65.5 0,38.3 26.9,65.5 63.6,65.5 z" />
  <path
     id="ICC copy"
     class="s0"
     aria-label="ICC"
     d="M -2.0943396e-6,192.34906 H 32.699998 l 23.1,-126.000012 h -32.7 z M 121,194.84906 c 21.3,0 38.4,-8.4 49.6,-23.7 l -20.8,-20.6 c -7.2,9.6 -16.1,14.8 -27.2,14.8 -19,0 -32.200002,-14.4 -32.200002,-36 0,-21.6 13.200002,-36.000001 32.200002,-36.000001 11.1,0 20,5.2 27.2,14.800001 L 170.6,87.549059 C 159.4,72.249058 142.3,63.849048 121,63.849048 c -36.700002,0 -63.600002,27.200011 -63.600002,65.500012 0,38.3 26.9,65.5 63.600002,65.5 z m 117.8,0 c 21.3,0 38.4,-8.4 49.6,-23.7 l -20.8,-20.6 c -7.2,9.6 -16.1,14.8 -27.2,14.8 -19,0 -32.2,-14.4 -32.2,-36 0,-21.6 13.2,-36.000001 32.2,-36.000001 11.1,0 20,5.2 27.2,14.800001 L 288.4,87.549059 C 277.2,72.249058 260.1,63.849048 238.8,63.849048 c -36.7,0 -63.6,27.200011 -63.6,65.500012 0,38.3 26.9,65.5 63.6,65.5 z"
     style="fill:#000000;fill-opacity:1" />
  <path
     id="ICL"
     class="s0"
     aria-label="ICL"
     d="m 561.10755,-55.518873 h 32.7 V -181.51887 h -32.7 z m 112.1,2.5 c 21.3,0 38.4,-8.4 49.6,-23.7 l -20.8,-20.6 c -7.2,9.6 -16.1,14.8 -27.2,14.8 -19,0 -32.2,-14.4 -32.2,-35.999997 0,-21.6 13.2,-36 32.2,-36 11.1,0 20,5.2 27.2,14.8 l 20.8,-20.6 c -11.2,-15.3 -28.3,-23.7 -49.6,-23.7 -36.7,0 -63.6,27.2 -63.6,65.5 0,38.299997 26.9,65.499997 63.6,65.499997 z m 62.7,-2.5 h 87.7 v -28.3 h -55.1 v -97.699997 h -32.6 z" />
  <path
     id="C"
     class="s0"
     aria-label="C"
     d="m 775.70755,293.98113 c 21.3,0 38.5,-8.4 49.7,-23.7 l -20.8,-20.6 c -7.3,9.6 -16.2,14.8 -27.2,14.8 -19,0 -32.2,-14.4 -32.2,-36 0,-21.6 13.2,-36 32.2,-36 11,0 19.9,5.2 27.2,14.8 l 20.8,-20.6 c -11.2,-15.3 -28.4,-23.7 -49.7,-23.7 -36.6,0 -63.5,27.2 -63.5,65.5 0,38.3 26.9,65.5 63.5,65.5 z" />
  <path
     id="L"
     class="s0"
     aria-label="L"
     d="m 890.10755,291.48113 h 87.79997 v -28.3 h -55.09997 v -97.7 h -32.7 z" />
  <path
     id="I"
     class="s0"
     aria-label="I"
     d="m 842.30755,151.48113 h 26.7 V 25.481127 h -26.7 z" />
  <path
     id="IMPERIAL CYCLING CLUB"
     class="s0"
     aria-label="IMPERIAL CYCLING CLUB"
     d="m 601.60755,-437.51887 h 3.8 v -31.9 h -3.8 z m 39.3,0 v -31.9 h -3.1 l -11,22.4 -11.1,-22.4 h -3.1 v 31.9 h 3.7 v -23.1 l 9.6,19.2 h 1.7 l 9.6,-19.4 0.1,23.3 z m 17.6,-31.9 h -10.4 v 31.9 h 3.8 v -9.7 h 6.6 c 6.9,0 11.1,-4.2 11.1,-11.1 0,-6.9 -4.2,-11.1 -11.1,-11.1 z m -0.1,18.2 h -6.5 v -14.3 h 6.5 c 4.8,0 7.4,2.6 7.4,7.2 0,4.5 -2.6,7.1 -7.4,7.1 z m 19.8,9.7 v -10.3 h 13.3 v -3.9 h -13.3 v -9.8 h 15 v -3.9 h -18.8 v 31.9 h 19.3 v -4 z m 42.8,4 -6.3,-10.7 c 3.7,-1.6 5.9,-5.2 5.9,-10.1 0,-6.9 -4.2,-11.1 -11.1,-11.1 h -10.4 v 31.9 h 3.8 v -9.7 h 6.6 c 0.5,0 1.1,-0.1 1.6,-0.1 l 5.8,9.8 z m -11.7,-13.6 h -6.4 v -14.4 h 6.4 c 4.9,0 7.4,2.6 7.4,7.2 0,4.5 -2.5,7.2 -7.4,7.2 z m 16.6,13.6 h 3.8 v -31.9 h -3.8 z m 30.9,0 h 4 l -12.1,-32 h -3.7 l -12.1,32 h 3.9 l 2.9,-8 h 14.2 z m -15.7,-11.6 5.7,-15.7 5.7,15.7 z m 22.9,11.6 h 18.2 v -4 h -14.4 v -27.9 h -3.8 z m -150.6,47.3 c 4.2,0 7.8,-1.7 10.2,-5 l -2.5,-2.9 c -2,2.6 -4.5,3.9 -7.5,3.9 -6,0 -10.4,-5.2 -10.4,-12.3 0,-7.1 4.4,-12.3 10.4,-12.3 3,0 5.5,1.2 7.5,3.8 l 2.5,-2.9 c -2.4,-3.2 -6,-4.9 -10.1,-4.9 -8.1,0 -14.1,6.9 -14.1,16.3 0,9.4 6,16.3 14,16.3 z m 35.2,-32.3 h -3.8 l -8.6,16.9 -8.5,-16.9 h -4 l 10.5,20.8 v 11.2 h 3.8 v -11.1 z m 13.8,32.3 c 4.2,0 7.7,-1.7 10.2,-5 l -2.5,-2.9 c -2,2.6 -4.6,3.9 -7.5,3.9 -6,0 -10.4,-5.2 -10.4,-12.3 0,-7.1 4.4,-12.3 10.4,-12.3 2.9,0 5.5,1.2 7.5,3.8 l 2.5,-2.9 c -2.5,-3.3 -6,-4.9 -10.1,-4.9 -8.1,0 -14.1,6.8 -14.1,16.3 0,9.4 6,16.3 14,16.3 z m 14.8,-0.4 h 18.3 v -3.9 h -14.5 v -28 h -3.8 z m 21.9,0 h 3.8 v -31.9 h -3.8 z m 30.1,-31.9 v 23.8 l -16,-23.8 h -3.1 v 31.9 h 3.8 v -23.8 l 15.9,23.8 h 3.2 v -31.9 z m 29.4,26.2 c -1.9,1.4 -4,2 -6.2,2 -6.1,0 -10.6,-5.2 -10.6,-12.3 0,-7.1 4.5,-12.2 10.6,-12.2 3,0 5.5,1.1 7.7,3.7 l 2.4,-2.9 c -2.4,-3.2 -6,-4.9 -10.2,-4.9 -8.3,0 -14.3,6.9 -14.3,16.3 0,9.5 6,16.4 14.2,16.4 3.7,0 7.4,-1.4 10.1,-4.1 v -12.4 h -3.7 z m -145.1,53.1 c 4.1,0 7.7,-1.8 10.1,-5 l -2.4,-2.9 c -2.1,2.6 -4.6,3.8 -7.5,3.8 -6,0 -10.5,-5.2 -10.5,-12.3 0,-7 4.5,-12.2 10.5,-12.2 2.9,0 5.4,1.2 7.5,3.8 l 2.4,-2.9 c -2.4,-3.3 -6,-5 -10.1,-5 -8.1,0 -14.1,6.9 -14.1,16.3 0,9.5 6,16.4 14.1,16.4 z m 14.8,-0.4 h 18.2 v -4 h -14.4 v -27.9 h -3.8 z m 32.4,0.4 c 7,0 11.2,-4.9 11.2,-14.2 v -18.1 h -3.7 v 17.9 c 0,7.1 -2.7,10.3 -7.5,10.3 -4.8,0 -7.5,-3.2 -7.5,-10.3 v -17.9 h -3.8 v 18.1 c 0,9.3 4.3,14.2 11.3,14.2 z m 36.2,-17 c 2,-1.2 3.5,-3.6 3.5,-7.1 0,-5.1 -3.4,-8.2 -9.5,-8.2 h -11.9 v 31.9 h 12.6 c 6.8,0 10.2,-3.2 10.2,-8.6 0,-4.3 -1.9,-7 -4.9,-8 z m -6.4,-11.6 c 3.9,0 6.1,1.7 6.1,5.1 0,3.3 -2.2,5.1 -6.1,5.1 h -7.7 v -10.2 z m 0.9,24.5 h -8.7 v -10.6 h 8.7 c 4.2,0 6.5,1.6 6.5,5.3 0,3.7 -2.3,5.3 -6.5,5.3 z" />
  <path
     id="IMPERIAL COLLEGE CYCLING CLUB"
     class="s0"
     aria-label="IMPERIAL COLLEGE CYCLING CLUB"
     d="m 81.909432,409.08491 h 3.8 v -31.9 h -3.8 z m 39.699998,0 v -31.9 h -3.2 l -10.9,22.4 -11.099998,-22.4 h -3.1 v 31.9 h 3.6 v -23.1 l 9.699998,19.2 h 1.7 l 9.6,-19.4 0.1,23.3 z m 17.9,-31.9 h -10.3 v 31.9 h 3.8 v -9.7 h 6.5 c 6.9,0 11.1,-4.2 11.1,-11.1 0,-6.9 -4.2,-11.1 -11.1,-11.1 z m -0.1,18.2 h -6.4 v -14.3 h 6.4 c 4.9,0 7.4,2.6 7.4,7.2 0,4.5 -2.5,7.1 -7.4,7.1 z m 20.2,9.7 v -10.3 h 13.4 v -3.9 h -13.4 v -9.8 h 15 v -3.9 h -18.8 v 31.9 h 19.3 v -4 z m 43.2,4 -6.3,-10.7 c 3.8,-1.6 5.9,-5.2 5.9,-10.1 0,-6.9 -4.2,-11.1 -11.1,-11.1 h -10.4 v 31.9 h 3.8 v -9.7 h 6.6 c 0.6,0 1.1,-0.1 1.7,-0.1 l 5.7,9.8 z m -11.7,-13.6 h -6.4 v -14.4 h 6.4 c 4.9,0 7.4,2.6 7.4,7.2 0,4.5 -2.5,7.2 -7.4,7.2 z m 17,13.6 h 3.8 v -31.9 h -3.8 z m 31.3,0 h 4 l -12.1,-32 h -3.8 l -12,32 h 3.9 l 2.9,-8 h 14.2 z m -15.8,-11.6 5.8,-15.7 5.7,15.7 z m 23.3,11.6 h 18.2 v -4 h -14.4 v -27.9 h -3.8 z m 43.9,0.3 c 4.2,0 7.7,-1.7 10.2,-5 l -2.5,-2.9 c -2,2.6 -4.6,3.9 -7.5,3.9 -6,0 -10.4,-5.2 -10.4,-12.3 0,-7.1 4.4,-12.3 10.4,-12.3 2.9,0 5.5,1.2 7.5,3.8 l 2.5,-2.9 c -2.5,-3.2 -6,-4.9 -10.1,-4.9 -8.1,0 -14.1,6.9 -14.1,16.3 0,9.4 6,16.3 14,16.3 z m 26.7,0 c 8.1,0 14.1,-6.9 14.1,-16.3 0,-9.4 -6,-16.3 -14.1,-16.3 -8.2,0 -14.2,7 -14.2,16.3 0,9.3 6,16.3 14.2,16.3 z m 0,-4 c -6,0 -10.4,-5.2 -10.4,-12.3 0,-7.1 4.4,-12.3 10.4,-12.3 5.9,0 10.3,5.2 10.3,12.3 0,7.1 -4.4,12.3 -10.3,12.3 z m 19.5,3.7 h 18.2 v -4 h -14.4 v -28 h -3.8 z m 22.2,0 h 18.2 v -3.9 h -14.4 v -28 h -3.8 z m 26,-3.9 v -10.4 h 13.3 v -3.8 h -13.3 v -9.8 h 15 v -4 h -18.8 v 31.9 h 19.3 v -3.9 z m 39.6,-1.8 c -1.9,1.4 -4,2 -6.2,2 -6.2,0 -10.6,-5.2 -10.6,-12.2 0,-7.2 4.4,-12.3 10.6,-12.3 3,0 5.5,1.1 7.7,3.7 l 2.4,-2.8 c -2.5,-3.3 -6,-5 -10.3,-5 -8.2,0 -14.2,6.9 -14.2,16.4 0,9.4 6,16.3 14.2,16.3 3.7,0 7.4,-1.4 10,-4.1 v -12.4 h -3.6 z m 14.3,1.8 v -10.3 h 13.3 v -3.9 h -13.3 v -9.8 h 15 v -4 h -18.8 v 31.9 h 19.3 v -3.9 z m -345.399998,49.3 c 4.1,0 7.699998,-1.7 10.099998,-5 l -2.5,-2.9 c -1.999998,2.6 -4.499998,3.8 -7.499998,3.8 -6,0 -10.4,-5.2 -10.4,-12.2 0,-7.1 4.4,-12.3 10.4,-12.3 3,0 5.5,1.2 7.499998,3.8 l 2.5,-2.9 c -2.4,-3.3 -5.999998,-5 -10.099998,-5 -8.1,0 -14.1,6.9 -14.1,16.4 0,9.4 6,16.3 14.1,16.3 z m 35.399998,-32.3 h -3.7 l -8.6,16.8 -8.5,-16.8 h -4 l 10.5,20.8 v 11.1 h 3.8 v -11 z m 14.2,32.3 c 4.1,0 7.7,-1.8 10.1,-5 l -2.4,-2.9 c -2.1,2.6 -4.6,3.8 -7.5,3.8 -6,0 -10.5,-5.2 -10.5,-12.3 0,-7 4.5,-12.2 10.5,-12.2 2.9,0 5.4,1.2 7.5,3.8 l 2.4,-2.9 c -2.4,-3.3 -6,-5 -10.1,-5 -8.1,0 -14.1,6.9 -14.1,16.3 0,9.5 6,16.4 14.1,16.4 z m 15.2,-0.4 h 18.2 v -4 h -14.4 v -27.9 h -3.8 z m 22.2,0 h 3.8 v -31.9 h -3.8 z m 30.5,-32 v 23.9 l -16,-23.9 h -3.1 v 32 h 3.8 v -23.8 l 15.9,23.8 h 3.2 v -32 z m 29.8,26.2 c -1.9,1.5 -4,2.1 -6.2,2.1 -6.2,0 -10.6,-5.3 -10.6,-12.3 0,-7.1 4.4,-12.3 10.6,-12.3 3,0 5.5,1.2 7.7,3.7 l 2.4,-2.8 c -2.5,-3.2 -6,-4.9 -10.3,-4.9 -8.2,0 -14.2,6.9 -14.2,16.3 0,9.4 6,16.3 14.2,16.3 3.7,0 7.4,-1.3 10,-4 v -12.5 h -3.6 z m 32.3,6.1 c 4.1,0 7.7,-1.7 10.1,-5 l -2.5,-2.9 c -2,2.6 -4.5,3.9 -7.5,3.9 -6,0 -10.4,-5.2 -10.4,-12.3 0,-7.1 4.4,-12.3 10.4,-12.3 3,0 5.5,1.2 7.5,3.8 l 2.5,-2.8 c -2.4,-3.3 -6,-5 -10.1,-5 -8.1,0 -14.1,6.9 -14.1,16.3 0,9.5 6,16.3 14.1,16.3 z m 15.2,-0.3 h 18.2 v -4 h -14.4 v -27.9 h -3.8 z m 32.7,0.3 c 7,0 11.3,-4.9 11.3,-14.1 v -18.2 h -3.7 v 18 c 0,7.1 -2.8,10.3 -7.6,10.3 -4.7,0 -7.4,-3.2 -7.4,-10.3 v -18 h -3.8 v 18.2 c 0,9.2 4.2,14.1 11.2,14.1 z m 36.6,-16.9 c 2.1,-1.2 3.5,-3.6 3.5,-7.1 0,-5.2 -3.4,-8.3 -9.5,-8.3 h -11.9 v 32 h 12.7 c 6.7,0 10.1,-3.2 10.1,-8.7 0,-4.2 -1.9,-6.9 -4.9,-7.9 z m -6.3,-11.7 c 3.8,0 6,1.8 6,5.1 0,3.4 -2.2,5.1 -6,5.1 h -7.8 v -10.2 z m 0.9,24.6 h -8.7 v -10.7 h 8.7 c 4.2,0 6.5,1.7 6.5,5.4 0,3.7 -2.3,5.3 -6.5,5.3 z"
     style="fill:#000000;fill-opacity:1" />
  <path
     id="path1"
     class="s0"
     aria-label="IMPERIAL COLLEGE CYCLING CLUB"
     d="m 564.80755,73.481126 h 6.1 V 44.181127 h -6.1 z m 42.4,0 -0.1,-29.199999 h -5 l -9.8,18.2 -10,-18.2 h -5.1 v 29.199999 h 5.8 V 56.381127 l 7.8,13.999999 h 2.8 l 7.8,-14.399999 v 17.499999 z m 17.8,-29.199999 h -11.5 v 29.199999 h 6.2 v -7.999999 h 5.3 c 7.2,0 11.6,-4.1 11.6,-10.6 0,-6.6 -4.4,-10.6 -11.6,-10.6 z m -0.3,15.7 h -5 v -10.2 h 5 c 3.8,0 5.7,1.9 5.7,5.1 0,3.2 -1.9,5.1 -5.7,5.1 z m 22.4,8.099999 v -6.799999 h 12.3 v -5.2 h -12.3 v -6.4 h 14 v -5.4 h -20.1 v 29.199999 h 20.6 v -5.4 z m 42.9,5.4 -6,-9.399999 c 3.5,-1.6 5.5,-4.8 5.5,-9.2 0,-6.6 -4.4,-10.6 -11.5,-10.6 h -11.6 v 29.199999 h 6.2 v -8.099999 h 5.4 0.3 l 5.1,8.099999 z m -6.7,-18.599999 c 0,3.2 -1.9,5.1 -5.7,5.1 h -5 v -10.2 h 5 c 3.8,0 5.7,1.9 5.7,5.1 z m 11.1,18.599999 h 6.1 V 44.281127 h -6.1 z m 32.3,0 h 6.5 l -11.9,-29.299999 h -6.1 l -11.9,29.299999 h 6.3 l 2.4,-6.299999 h 12.3 z m -12.7,-11.399999 4.2,-11.2 4.2,11.2 z m 22,11.399999 h 19.5 v -5.5 h -13.3 V 44.281127 h -6.2 z m 46.4,0.5 c 4.7,0 8.5,-1.9 11,-5.3 l -3.9,-3.999999 c -1.8,2.3 -4,3.499999 -6.7,3.499999 -5,0 -8.5,-3.899999 -8.5,-9.399999 0,-5.5 3.5,-9.3 8.5,-9.3 2.7,0 4.9,1.1 6.7,3.4 l 3.9,-4 c -2.5,-3.4 -6.3,-5.2 -10.9,-5.2 -8.3,0 -14.5,6.3 -14.5,15.1 0,8.799999 6.2,15.199999 14.4,15.199999 z m 27.5,0 c 8.3,0 14.5,-6.4 14.5,-15.199999 0,-8.7 -6.2,-15.1 -14.5,-15.1 -8.4,0 -14.6,6.4 -14.6,15.1 0,8.699999 6.2,15.199999 14.6,15.199999 z m 0,-5.8 c -4.8,0 -8.3,-3.799999 -8.3,-9.399999 0,-5.5 3.5,-9.3 8.3,-9.3 4.7,0 8.3,3.8 8.3,9.3 0,5.6 -3.6,9.399999 -8.3,9.399999 z m 19.2,5.3 h 19.5 v -5.6 h -13.4 V 44.181127 h -6.1 z m 22.9,0 h 19.5 v -5.5 h -13.3 V 44.181127 h -6.2 z m 29.1,-5.4 v -6.799999 h 12.3 v -5.2 h -12.3 v -6.4 h 14 v -5.4 h -20.1 v 29.199999 h 20.6 v -5.4 z m 37.3,-1.099999 c -1.6,0.899999 -3.2,1.299999 -4.8,1.299999 -5.1,0 -8.7,-3.899999 -8.7,-9.399999 0,-5.6 3.6,-9.4 8.7,-9.4 2.7,0 5,1.1 6.9,3.3 l 4,-4 c -2.6,-3.3 -6.5,-5 -11.2,-5 -8.4,0 -14.6,6.3 -14.6,15.1 0,8.799999 6.2,15.099999 14.5,15.099999 3.8,0 7.9,-1.3 10.8,-3.7 V 58.381127 h -5.6 z m 17.4,1.099999 v -6.699999 h 12.29997 v -5.3 h -12.29997 v -6.4 h 13.99997 v -5.4 h -20.09997 v 29.299999 h 20.59997 v -5.5 z m -358.3,53.000004 c 4.6,0 8.5,-1.9 11,-5.3 l -4,-4 c -1.7,2.3 -4,3.5 -6.6,3.5 -5,0 -8.6,-3.9 -8.6,-9.4 0,-5.5 3.6,-9.300004 8.6,-9.300004 2.6,0 4.9,1.1 6.6,3.4 l 4,-4 c -2.5,-3.4 -6.4,-5.2 -11,-5.2 -8.2,0 -14.4,6.3 -14.4,15.100004 0,8.9 6.2,15.2 14.4,15.2 z m 38,-29.800004 h -6.1 l -7.1,13.000004 -7.1,-13.000004 h -6.5 l 10.3,18.800004 v 10.5 h 6.1 v -10.4 z m 14.2,29.800004 c 4.6,0 8.5,-1.9 11,-5.3 l -4,-4 c -1.7,2.3 -4,3.5 -6.6,3.5 -5,0 -8.6,-3.9 -8.6,-9.4 0,-5.5 3.6,-9.300004 8.6,-9.300004 2.6,0 4.9,1.1 6.6,3.4 l 4,-4 c -2.5,-3.4 -6.4,-5.2 -11,-5.2 -8.2,0 -14.4,6.3 -14.4,15.100004 0,8.8 6.2,15.2 14.4,15.2 z m 15.1,-0.5 h 19.5 v -5.6 h -13.3 V 91.281126 h -6.2 z m 23,0 h 6.1 V 91.281126 h -6.1 z m 30.8,-29.200004 v 17.700004 l -13.3,-17.700004 h -5 v 29.200004 h 6 v -17.7 l 13.3,17.7 h 5 V 91.381126 Z m 30.4,22.700004 c -1.5,0.9 -3.1,1.3 -4.8,1.3 -5.1,0 -8.6,-3.9 -8.6,-9.4 0,-5.6 3.5,-9.400004 8.7,-9.400004 2.7,0 4.9,1.1 6.9,3.3 l 3.9,-4 c -2.6,-3.3 -6.4,-5 -11.1,-5 -8.5,0 -14.6,6.3 -14.6,15.100004 0,8.8 6.1,15.1 14.5,15.1 3.8,0 7.8,-1.3 10.7,-3.7 v -11.9 h -5.6 z m 34.8,7.1 c 4.7,0 8.5,-1.9 11,-5.3 l -4,-4 c -1.7,2.3 -4,3.5 -6.6,3.5 -5,0 -8.6,-3.8 -8.6,-9.4 0,-5.5 3.6,-9.300004 8.6,-9.300004 2.6,0 4.9,1.1 6.6,3.400004 l 4,-4.000004 c -2.5,-3.4 -6.3,-5.2 -10.9,-5.2 -8.3,0 -14.5,6.3 -14.5,15.100004 0,8.9 6.2,15.2 14.4,15.2 z m 15.1,-0.5 h 19.5 v -5.6 h -13.3 V 91.381126 h -6.2 z m 34.5,0.5 c 7.5,0 12,-4.8 12,-13.4 V 91.381126 h -6.1 v 16.200004 c 0,5.5 -2.1,7.8 -5.9,7.8 -3.7,0 -5.9,-2.3 -5.9,-7.8 V 91.381126 h -6.2 v 16.400004 c 0,8.6 4.5,13.4 12.1,13.4 z m 37.6,-15.7 c 2.2,-1.3 3.6,-3.5 3.6,-6.400004 0,-4.6 -3.5,-7.7 -10.1,-7.7 h -13 v 29.300004 h 13.8 c 6.9,0 10.6,-2.9 10.6,-8 0,-3.7 -1.9,-6.2 -4.9,-7.2 z m -7.3,-9.000004 c 3,0 4.7,1.2 4.7,3.5 0,2.300004 -1.7,3.400004 -4.7,3.400004 h -6.1 v -6.900004 z m 1.1,19.100004 h -7.2 v -7.2 h 7.2 c 3.2,0 4.9,1.1 4.9,3.6 0,2.5 -1.7,3.6 -4.9,3.6 z" />
  <metadata
     id="metadata1">
    <rdf:RDF>
      <cc:Work
         rdf:about="">
        <dc:title>Neues Projekt</dc:title>
      </cc:Work>
    </rdf:RDF>
  </metadata>
</svg>
